NotoSansSymbols-Light.ufo
<glyph name="enclosingupwardpointingtrianglecomb" format="2">
  <unicode hex="20E4"/>
  <note>
uni20E4
</note>
  <guideline y="-267"/>
  <guideline x="-459" y="527" angle="59.9955"/>
  <outline>
    <contour>
      <point x="-963" y="-193" type="line"/>
      <point x="963" y="-193" type="line"/>
      <point x="0" y="1471" type="line"/>
    </contour>
    <contour>
      <point x="-916" y="-167" type="line"/>
      <point x="0" y="1420" type="line"/>
      <point x="916" y="-167" type="line"/>
    </contour>
  </outline>
</glyph>
<glyph name="One-roman" format="2">
  <advance width="206"/>
  <unicode hex="2160"/>
  <guideline x="-114" y="370" angle="0"/>
  <guideline x="31" y="773" angle="270"/>
  <guideline x="173" y="770" angle="270"/>
  <outline>
    <contour>
      <point x="21" y="0" type="line"/>
      <point x="185" y="0" type="line"/>
      <point x="185" y="20" type="line"/>
      <point x="116" y="23" type="line"/>
      <point x="116" y="695" type="line"/>
      <point x="185" y="699" type="line"/>
      <point x="185" y="719" type="line"/>
      <point x="21" y="719" type="line"/>
      <point x="21" y="699" type="line"/>
      <point x="90" y="695" type="line"/>
      <point x="90" y="23" type="line"/>
      <point x="21" y="20" type="line"/>
    </contour>
  </outline>
</glyph>
<glyph name="Hundred-roman" format="2">
  <advance width="621"/>
  <unicode hex="216D"/>
  <guideline x="384" y="769" angle="270"/>
  <guideline x="-25" y="360" angle="0"/>
  <outline>
    <contour>
      <point x="379" y="-20" type="curve" smooth="yes"/>
      <point x="460" y="-20"/>
      <point x="524" y="-5"/>
      <point x="569" y="12" type="curve"/>
      <point x="569" y="36" type="line"/>
      <point x="520" y="18"/>
      <point x="458" y="6"/>
      <point x="379" y="6" type="curve" smooth="yes"/>
      <point x="176" y="6"/>
      <point x="74" y="148"/>
      <point x="74" y="362" type="curve" smooth="yes"/>
      <point x="74" y="563"/>
      <point x="191" y="712"/>
      <point x="399" y="712" type="curve" smooth="yes"/>
      <point x="456" y="712"/>
      <point x="514" y="705"/>
      <point x="572" y="674" type="curve"/>
      <point x="583" y="700" type="line"/>
      <point x="526" y="725"/>
      <point x="466" y="738"/>
      <point x="399" y="738" type="curve" smooth="yes"/>
      <point x="178" y="738"/>
      <point x="46" y="577"/>
      <point x="46" y="362" type="curve" smooth="yes"/>
      <point x="46" y="134"/>
      <point x="160" y="-20"/>
    </contour>
  </outline>
</glyph>
<glyph name="Fivehundred-roman" format="2">
  <advance width="652"/>
  <unicode hex="216E"/>
  <guideline x="233" y="780" angle="270"/>
  <guideline x="729" y="369" angle="180"/>
  <outline>
    <contour>
      <point x="77" y="0" type="line"/>
      <point x="232" y="0" type="line" smooth="yes"/>
      <point x="484" y="0"/>
      <point x="606" y="126"/>
      <point x="606" y="367" type="curve" smooth="yes"/>
      <point x="606" y="595"/>
      <point x="493" y="719"/>
      <point x="255" y="719" type="curve" smooth="yes"/>
      <point x="77" y="719" type="line"/>
    </contour>
    <contour>
      <point x="104" y="25" type="line"/>
      <point x="104" y="694" type="line"/>
      <point x="246" y="694" type="line" smooth="yes"/>
      <point x="479" y="694"/>
      <point x="579" y="579"/>
      <point x="579" y="366" type="curve" smooth="yes"/>
      <point x="579" y="137"/>
      <point x="466" y="25"/>
      <point x="235" y="25" type="curve" smooth="yes"/>
    </contour>
  </outline>
</glyph>
<glyph name="sixlateform-roman" format="2">
  <advance width="642"/>
  <unicode hex="2185"/>
  <guideline x="398" y="802" angle="270"/>
  <guideline x="-19" y="363" angle="0"/>
  <outline>
    <contour>
      <point x="416" y="-258" type="line"/>
      <point x="442" y="-258" type="line"/>
      <point x="442" y="9" type="line"/>
      <point x="428" y="7"/>
      <point x="423" y="6"/>
      <point x="407" y="6" type="curve" smooth="yes"/>
      <point x="186" y="6"/>
      <point x="63" y="142"/>
      <point x="63" y="362" type="curve" smooth="yes"/>
      <point x="63" y="563"/>
      <point x="182" y="712"/>
      <point x="389" y="712" type="curve" smooth="yes"/>
      <point x="446" y="712"/>
      <point x="503" y="705"/>
      <point x="563" y="674" type="curve"/>
      <point x="572" y="699" type="line"/>
      <point x="516" y="725"/>
      <point x="456" y="738"/>
      <point x="389" y="738" type="curve" smooth="yes"/>
      <point x="168" y="738"/>
      <point x="36" y="577"/>
      <point x="36" y="362" type="curve" smooth="yes"/>
      <point x="36" y="134"/>
      <point x="167" y="-19"/>
      <point x="416" y="-19" type="curve"/>
    </contour>
  </outline>
</glyph>
<glyph name="fiftyearlyform-roman" format="2">
  <advance width="547"/>
  <unicode hex="2186"/>
  <guideline x="52" y="474" angle="0.2599"/>
  <guideline x="445" y="393" angle="180"/>
  <guideline x="-33" y="215" angle="0"/>
  <outline>
    <contour>
      <point x="268" y="-69" type="line"/>
      <point x="279" y="-69" type="line"/>
      <point x="482" y="115" type="line"/>
      <point x="482" y="148" type="line"/>
      <point x="277" y="-37" type="line"/>
      <point x="287" y="-50" type="line"/>
      <point x="287" y="719" type="line"/>
      <point x="260" y="719" type="line"/>
      <point x="260" y="-50" type="line"/>
      <point x="270" y="-37" type="line"/>
      <point x="65" y="148" type="line"/>
      <point x="65" y="115" type="line"/>
    </contour>
  </outline>
</glyph>
<glyph name="segment" format="2">
  <advance width="844"/>
  <unicode hex="2313"/>
  <note>
uni2313
</note>
  <guideline x="422" y="535" angle="270"/>
  <outline>
    <contour>
      <point x="51" y="112" type="curve"/>
      <point x="793" y="112" type="line"/>
      <point x="793" y="316"/>
      <point x="628" y="483"/>
      <point x="422" y="483" type="curve" smooth="yes"/>
      <point x="216" y="483"/>
      <point x="51" y="316"/>
    </contour>
    <contour>
      <point x="79" y="137" type="line"/>
      <point x="92" y="297"/>
      <point x="228" y="457"/>
      <point x="422" y="457" type="curve" smooth="yes"/>
      <point x="616" y="457"/>
      <point x="751" y="297"/>
      <point x="765" y="137" type="curve"/>
    </contour>
  </outline>
</glyph>
<glyph name="viewdataDquare" format="2">
  <advance width="823"/>
  <unicode hex="2317"/>
  <note>
uni2317
</note>
  <guideline x="-35" y="212" angle="0"/>
  <guideline x="-63" y="357" angle="0"/>
  <guideline x="153" y="636" angle="270"/>
  <guideline x="710" y="671" angle="270"/>
  <outline>
    <contour>
      <point x="55" y="123" type="line"/>
      <point x="769" y="123" type="line"/>
      <point x="769" y="149" type="line"/>
      <point x="55" y="149" type="line"/>
    </contour>
    <contour>
      <point x="55" y="563" type="line"/>
      <point x="769" y="563" type="line"/>
      <point x="769" y="589" type="line"/>
      <point x="55" y="589" type="line"/>
    </contour>
    <contour>
      <point x="178" y="0" type="line"/>
      <point x="204" y="0" type="line"/>
      <point x="204" y="712" type="line"/>
      <point x="178" y="712" type="line"/>
    </contour>
    <contour>
      <point x="619" y="0" type="line"/>
      <point x="645" y="0" type="line"/>
      <point x="645" y="712" type="line"/>
      <point x="619" y="712" type="line"/>
    </contour>
  </outline>
</glyph>
<glyph name="slope" format="2">
  <advance width="872"/>
  <unicode hex="2333"/>
  <note>
uni2333
</note>
  <guideline x="199" y="630" angle="245"/>
  <guideline x="690" y="443" angle="245"/>
  <outline>
    <contour>
      <point x="56" y="286" type="line"/>
      <point x="816" y="286" type="line"/>
      <point x="816" y="298" type="line"/>
      <point x="56" y="636" type="line"/>
    </contour>
    <contour>
      <point x="82" y="311" type="line"/>
      <point x="82" y="596" type="line"/>
      <point x="725" y="311" type="line"/>
    </contour>
  </outline>
</glyph>
<glyph name="entersymbol" format="2">
  <advance width="817"/>
  <unicode hex="2386"/>
  <note>
uni2386
</note>
  <guideline x="875" y="356" angle="180"/>
  <guideline x="598" y="290" angle="0"/>
  <guideline x="414" y="346" angle="270"/>
  <outline>
    <contour>
      <point x="401" y="1" type="line"/>
      <point x="756" y="356" type="line"/>
      <point x="401" y="711" type="line"/>
      <point x="177" y="486" type="line"/>
      <point x="215" y="486" type="line"/>
      <point x="401" y="673" type="line"/>
      <point x="718" y="356" type="line"/>
      <point x="401" y="39" type="line"/>
      <point x="215" y="226" type="line"/>
      <point x="177" y="226" type="line"/>
    </contour>
    <contour>
      <point x="411" y="261" type="line"/>
      <point x="411" y="318" type="line"/>
      <point x="87" y="318" type="line"/>
      <point x="87" y="394" type="line"/>
      <point x="411" y="394" type="line"/>
      <point x="411" y="451" type="line"/>
      <point x="502" y="356" type="line"/>
    </contour>
    <contour>
      <point x="385" y="195" type="line"/>
      <point x="540" y="356" type="line"/>
      <point x="385" y="518" type="line"/>
      <point x="385" y="419" type="line"/>
      <point x="61" y="419" type="line"/>
      <point x="61" y="293" type="line"/>
      <point x="385" y="293" type="line"/>
    </contour>
  </outline>
</glyph>
<glyph name="monostablesymbol" format="2">
  <advance width="814"/>
  <unicode hex="238D"/>
  <note>
uni238D
</note>
  <guideline x="404" y="796" angle="270"/>
  <guideline x="107" y="117" angle="270"/>
  <guideline x="709" y="151" angle="270"/>
  <outline>
    <contour>
      <point x="61" y="0" type="line"/>
      <point x="250" y="0" type="line"/>
      <point x="250" y="688" type="line"/>
      <point x="564" y="688" type="line"/>
      <point x="564" y="0" type="line"/>
      <point x="753" y="0" type="line"/>
      <point x="753" y="25" type="line"/>
      <point x="591" y="25" type="line"/>
      <point x="591" y="714" type="line"/>
      <point x="224" y="714" type="line"/>
      <point x="224" y="25" type="line"/>
      <point x="61" y="25" type="line"/>
    </contour>
  </outline>
</glyph>
<glyph name="hysteresissymbol" format="2">
  <advance width="686"/>
  <unicode hex="238E"/>
  <note>
uni238E
</note>
  <guideline x="310" y="310" angle="270"/>
  <guideline x="-34" y="146" angle="0"/>
  <guideline x="55" y="73" angle="270"/>
  <guideline x="630" y="764" angle="270"/>
  <outline>
    <contour>
      <point x="80" y="0" type="line"/>
      <point x="387" y="0" type="line" smooth="yes"/>
      <point x="507" y="0"/>
      <point x="537" y="79"/>
      <point x="537" y="155" type="curve" smooth="yes"/>
      <point x="537" y="550" type="line" smooth="yes"/>
      <point x="537" y="630"/>
      <point x="545" y="683"/>
      <point x="606" y="706" type="curve"/>
      <point x="606" y="714" type="line"/>
      <point x="299" y="714" type="line" smooth="yes"/>
      <point x="179" y="714"/>
      <point x="149" y="635"/>
      <point x="149" y="559" type="curve" smooth="yes"/>
      <point x="149" y="164" type="line" smooth="yes"/>
      <point x="149" y="84"/>
      <point x="141" y="31"/>
      <point x="80" y="8" type="curve"/>
    </contour>
    <contour>
      <point x="133" y="25" type="line"/>
      <point x="133" y="26" type="line"/>
      <point x="166" y="50"/>
      <point x="176" y="83"/>
      <point x="176" y="150" type="curve" smooth="yes"/>
      <point x="176" y="550" type="line" smooth="yes"/>
      <point x="176" y="638"/>
      <point x="208" y="688"/>
      <point x="292" y="688" type="curve" smooth="yes"/>
      <point x="553" y="688" type="line"/>
      <point x="553" y="687" type="line"/>
      <point x="522" y="666"/>
      <point x="510" y="631"/>
      <point x="510" y="563" type="curve" smooth="yes"/>
      <point x="510" y="164" type="line" smooth="yes"/>
      <point x="510" y="76"/>
      <point x="478" y="25"/>
      <point x="394" y="25" type="curve" smooth="yes"/>
    </contour>
  </outline>
</glyph>
<glyph name="open-circuit-outputh-typesymbol" format="2">
  <advance width="862"/>
  <unicode hex="238F"/>
  <note>
uni238F
</note>
  <guideline x="431" y="403" angle="270"/>
  <guideline x="-57" y="375" angle="0"/>
  <guideline x="149" y="352" angle="270"/>
  <guideline x="298" y="327" angle="270"/>
  <guideline x="563" y="287" angle="270"/>
  <guideline x="692" y="343" angle="270"/>
  <outline>
    <contour>
      <point x="431" y="10" type="line"/>
      <point x="794" y="375" type="line"/>
      <point x="456" y="714" type="line"/>
      <point x="794" y="714" type="line"/>
      <point x="794" y="739" type="line"/>
      <point x="68" y="739" type="line"/>
      <point x="68" y="714" type="line"/>
      <point x="406" y="714" type="line"/>
      <point x="68" y="375" type="line"/>
    </contour>
    <contour>
      <point x="431" y="47" type="line"/>
      <point x="105" y="375" type="line"/>
      <point x="431" y="702" type="line"/>
      <point x="757" y="375" type="line"/>
    </contour>
  </outline>
</glyph>
<glyph name="software-functionsymbol" format="2">
  <advance width="828"/>
  <unicode hex="2394"/>
  <note>
uni2394
</note>
  <guideline x="406" y="760" angle="270"/>
  <guideline x="-28" y="357" angle="0"/>
  <guideline x="18" y="79" angle="0"/>
  <guideline x="39" y="635" angle="0"/>
  <outline>
    <contour>
      <point x="242" y="54" type="line"/>
      <point x="586" y="54" type="line"/>
      <point x="761" y="357" type="line"/>
      <point x="586" y="660" type="line"/>
      <point x="242" y="660" type="line"/>
      <point x="67" y="357" type="line"/>
    </contour>
    <contour>
      <point x="258" y="79" type="line"/>
      <point x="98" y="357" type="line"/>
      <point x="258" y="635" type="line"/>
      <point x="570" y="635" type="line"/>
      <point x="730" y="357" type="line"/>
      <point x="570" y="79" type="line"/>
    </contour>
  </outline>
</glyph>
<glyph name="verticalandtopright-dentistry" format="2">
  <advance width="755"/>
  <unicode hex="23BE"/>
  <outline>
    <contour>
      <point x="362" y="0" type="line"/>
      <point x="388" y="0" type="line"/>
      <point x="388" y="688" type="line"/>
      <point x="636" y="688" type="line"/>
      <point x="636" y="714" type="line"/>
      <point x="362" y="714" type="line"/>
    </contour>
  </outline>
</glyph>
<glyph name="verticalandbottomright-dentistry" format="2">
  <advance width="755"/>
  <unicode hex="23BF"/>
  <outline>
    <contour>
      <point x="362" y="0" type="line"/>
      <point x="636" y="0" type="line"/>
      <point x="636" y="25" type="line"/>
      <point x="388" y="25" type="line"/>
      <point x="388" y="714" type="line"/>
      <point x="362" y="714" type="line"/>
    </contour>
  </outline>
</glyph>
<glyph name="verticalcircle-dentistry" format="2">
  <advance width="755"/>
  <unicode hex="23C0"/>
  <guideline x="-25" y="349" angle="0"/>
  <guideline x="335" y="489" angle="270"/>
  <outline>
    <contour>
      <point x="365" y="0" type="line"/>
      <point x="390" y="0" type="line"/>
      <point x="390" y="164" type="line"/>
      <point x="492" y="171"/>
      <point x="562" y="252"/>
      <point x="562" y="351" type="curve" smooth="yes"/>
      <point x="562" y="449"/>
      <point x="492" y="530"/>
      <point x="390" y="537" type="curve"/>
      <point x="390" y="714" type="line"/>
      <point x="365" y="714" type="line"/>
      <point x="365" y="537" type="line"/>
      <point x="263" y="530"/>
      <point x="193" y="449"/>
      <point x="193" y="351" type="curve" smooth="yes"/>
      <point x="193" y="252"/>
      <point x="263" y="171"/>
      <point x="365" y="164" type="curve"/>
    </contour>
    <contour>
      <point x="365" y="190" type="line"/>
      <point x="278" y="196"/>
      <point x="220" y="265"/>
      <point x="220" y="351" type="curve" smooth="yes"/>
      <point x="220" y="437"/>
      <point x="278" y="505"/>
      <point x="365" y="511" type="curve"/>
    </contour>
    <contour>
      <point x="390" y="190" type="curve"/>
      <point x="390" y="511" type="line"/>
      <point x="477" y="505"/>
      <point x="535" y="437"/>
      <point x="535" y="351" type="curve" smooth="yes"/>
      <point x="535" y="265"/>
      <point x="477" y="196"/>
    </contour>
  </outline>
</glyph>
<glyph name="downandhorizontalcircle-dentistry" format="2">
  <advance width="755"/>
  <unicode hex="23C1"/>
  <guideline x="178" y="723" angle="270"/>
  <guideline x="798" y="705" angle="180"/>
  <guideline x="553" y="351" angle="180"/>
  <outline>
    <contour>
      <point x="365" y="0" type="line"/>
      <point x="390" y="0" type="line"/>
      <point x="390" y="164" type="line"/>
      <point x="492" y="171"/>
      <point x="562" y="252"/>
      <point x="562" y="351" type="curve" smooth="yes"/>
      <point x="562" y="449"/>
      <point x="492" y="530"/>
      <point x="390" y="537" type="curve"/>
      <point x="390" y="688" type="line"/>
      <point x="636" y="688" type="line"/>
      <point x="636" y="714" type="line"/>
      <point x="119" y="714" type="line"/>
      <point x="119" y="688" type="line"/>
      <point x="365" y="688" type="line"/>
      <point x="365" y="537" type="line"/>
      <point x="263" y="530"/>
      <point x="193" y="449"/>
      <point x="193" y="351" type="curve" smooth="yes"/>
      <point x="193" y="252"/>
      <point x="263" y="171"/>
      <point x="365" y="164" type="curve"/>
    </contour>
    <contour>
      <point x="365" y="190" type="line"/>
      <point x="278" y="196"/>
      <point x="220" y="265"/>
      <point x="220" y="351" type="curve" smooth="yes"/>
      <point x="220" y="437"/>
      <point x="278" y="505"/>
      <point x="365" y="511" type="curve"/>
    </contour>
    <contour>
      <point x="390" y="190" type="curve"/>
      <point x="390" y="511" type="line"/>
      <point x="477" y="505"/>
      <point x="535" y="437"/>
      <point x="535" y="351" type="curve" smooth="yes"/>
      <point x="535" y="265"/>
      <point x="477" y="196"/>
    </contour>
  </outline>
</glyph>
<glyph name="upandhorizontalcircle-dentistry" format="2">
  <advance width="755"/>
  <unicode hex="23C2"/>
  <outline>
    <contour>
      <point x="119" y="0" type="line"/>
      <point x="636" y="0" type="line"/>
      <point x="636" y="25" type="line"/>
      <point x="390" y="25" type="line"/>
      <point x="390" y="177" type="line"/>
      <point x="492" y="184"/>
      <point x="562" y="265"/>
      <point x="562" y="363" type="curve" smooth="yes"/>
      <point x="562" y="461"/>
      <point x="492" y="543"/>
      <point x="390" y="550" type="curve"/>
      <point x="390" y="714" type="line"/>
      <point x="365" y="714" type="line"/>
      <point x="365" y="550" type="line"/>
      <point x="263" y="543"/>
      <point x="193" y="461"/>
      <point x="193" y="363" type="curve" smooth="yes"/>
      <point x="193" y="265"/>
      <point x="263" y="184"/>
      <point x="365" y="177" type="curve"/>
      <point x="365" y="25" type="line"/>
      <point x="119" y="25" type="line"/>
    </contour>
    <contour>
      <point x="365" y="203" type="line"/>
      <point x="278" y="209"/>
      <point x="220" y="277"/>
      <point x="220" y="363" type="curve" smooth="yes"/>
      <point x="220" y="449"/>
      <point x="278" y="518"/>
      <point x="365" y="524" type="curve"/>
    </contour>
    <contour>
      <point x="390" y="203" type="curve"/>
      <point x="390" y="524" type="line"/>
      <point x="477" y="518"/>
      <point x="535" y="449"/>
      <point x="535" y="363" type="curve" smooth="yes"/>
      <point x="535" y="277"/>
      <point x="477" y="209"/>
    </contour>
  </outline>
</glyph>
<glyph name="verticaltriangle-dentistry" format="2">
  <advance width="755"/>
  <unicode hex="23C3"/>
  <guideline x="327" y="201" angle="270"/>
  <guideline x="224" y="479" angle="148.217"/>
  <guideline x="170" y="325" angle="148.217"/>
  <outline>
    <contour>
      <point x="364" y="0" type="line"/>
      <point x="389" y="0" type="line"/>
      <point x="389" y="154" type="line"/>
      <point x="597" y="154" type="line"/>
      <point x="597" y="172" type="line"/>
      <point x="389" y="575" type="line"/>
      <point x="389" y="714" type="line"/>
      <point x="364" y="714" type="line"/>
      <point x="364" y="575" type="line"/>
      <point x="156" y="172" type="line"/>
      <point x="156" y="154" type="line"/>
      <point x="364" y="154" type="line"/>
    </contour>
    <contour>
      <point x="190" y="180" type="line"/>
      <point x="364" y="517" type="line"/>
      <point x="364" y="180" type="line"/>
    </contour>
    <contour>
      <point x="389" y="180" type="line"/>
      <point x="389" y="517" type="line"/>
      <point x="563" y="180" type="line"/>
    </contour>
  </outline>
</glyph>
<glyph name="downandhorizontalwave-dentistry" format="2">
  <advance width="755"/>
  <unicode hex="23C7"/>
  <outline>
    <contour>
      <point x="364" y="0" type="line"/>
      <point x="391" y="0" type="line"/>
      <point x="391" y="343" type="line"/>
      <point x="445" y="327"/>
      <point x="492" y="318"/>
      <point x="530" y="318" type="curve" smooth="yes"/>
      <point x="581" y="318"/>
      <point x="633" y="333"/>
      <point x="680" y="373" type="curve"/>
      <point x="680" y="404" type="line"/>
      <point x="625" y="361"/>
      <point x="580" y="344"/>
      <point x="528" y="344" type="curve" smooth="yes"/>
      <point x="495" y="344"/>
      <point x="461" y="350"/>
      <point x="391" y="369" type="curve"/>
      <point x="391" y="688" type="line"/>
      <point x="680" y="688" type="line"/>
      <point x="680" y="714" type="line"/>
      <point x="75" y="714" type="line"/>
      <point x="75" y="688" type="line"/>
      <point x="364" y="688" type="line"/>
      <point x="364" y="376" type="line"/>
      <point x="297" y="395"/>
      <point x="260" y="401"/>
      <point x="225" y="401" type="curve" smooth="yes"/>
      <point x="174" y="401"/>
      <point x="122" y="386"/>
      <point x="75" y="347" type="curve"/>
      <point x="75" y="315" type="line"/>
      <point x="130" y="359"/>
      <point x="175" y="375"/>
      <point x="227" y="375" type="curve" smooth="yes"/>
      <point x="263" y="375"/>
      <point x="300" y="369"/>
      <point x="364" y="350" type="curve"/>
    </contour>
  </outline>
</glyph>
<glyph name="downandhorizontal-dentistry" format="2">
  <advance width="755"/>
  <unicode hex="23C9"/>
  <guideline x="538" y="774" angle="270"/>
  <outline>
    <contour>
      <point x="364" y="0" type="line"/>
      <point x="391" y="0" type="line"/>
      <point x="391" y="688" type="line"/>
      <point x="704" y="688" type="line"/>
      <point x="704" y="714" type="line"/>
      <point x="51" y="714" type="line"/>
      <point x="51" y="688" type="line"/>
      <point x="364" y="688" type="line"/>
    </contour>
  </outline>
</glyph>
<glyph name="upandhorizontal-dentistry" format="2">
  <advance width="755"/>
  <unicode hex="23CA"/>
  <outline>
    <contour>
      <point x="51" y="0" type="line"/>
      <point x="704" y="0" type="line"/>
      <point x="704" y="25" type="line"/>
      <point x="391" y="25" type="line"/>
      <point x="391" y="714" type="line"/>
      <point x="364" y="714" type="line"/>
      <point x="364" y="25" type="line"/>
      <point x="51" y="25" type="line"/>
    </contour>
  </outline>
</glyph>
<glyph name="verticalandtopleft-dentistry" format="2">
  <advance width="755"/>
  <unicode hex="23CB"/>
  <guideline x="259" y="735" angle="270"/>
  <outline>
    <contour>
      <point x="387" y="0" type="line"/>
      <point x="413" y="0" type="line"/>
      <point x="413" y="714" type="line"/>
      <point x="96" y="714" type="line"/>
      <point x="96" y="688" type="line"/>
      <point x="387" y="688" type="line"/>
    </contour>
  </outline>
</glyph>
<glyph name="verticalandbottomleft-dentistry" format="2">
  <advance width="755"/>
  <unicode hex="23CC"/>
  <outline>
    <contour>
      <point x="96" y="0" type="line"/>
      <point x="413" y="0" type="line"/>
      <point x="413" y="714" type="line"/>
      <point x="387" y="714" type="line"/>
      <point x="387" y="25" type="line"/>
      <point x="96" y="25" type="line"/>
    </contour>
  </outline>
</glyph>
<glyph name="squarefoot" format="2">
  <advance width="788"/>
  <unicode hex="23CD"/>
  <note>
uni23CD
</note>
  <guideline x="-36" y="292" angle="0"/>
  <guideline x="234" y="757" angle="270"/>
  <guideline x="565" y="813" angle="268.43"/>
  <outline>
    <contour>
      <point x="51" y="0" type="line"/>
      <point x="737" y="0" type="line"/>
      <point x="737" y="714" type="line"/>
      <point x="506" y="714" type="line"/>
      <point x="501" y="688" type="line"/>
      <point x="710" y="688" type="line"/>
      <point x="710" y="25" type="line"/>
      <point x="77" y="25" type="line"/>
      <point x="77" y="688" type="line"/>
      <point x="294" y="688" type="line"/>
      <point x="300" y="714" type="line"/>
      <point x="51" y="714" type="line"/>
    </contour>
    <contour>
      <point x="354" y="563" type="line"/>
      <point x="378" y="563" type="line"/>
      <point x="457" y="792" type="line"/>
      <point x="412" y="792" type="line"/>
    </contour>
  </outline>
</glyph>
<glyph name="metricaltriseme" format="2">
  <advance width="769"/>
  <unicode hex="23D7"/>
  <note>
uni23D7
</note>
  <guideline x="387" y="522" angle="270"/>
  <outline>
    <contour>
      <point x="56" y="384" type="line"/>
      <point x="713" y="384" type="line"/>
      <point x="713" y="695" type="line"/>
      <point x="687" y="695" type="line"/>
      <point x="687" y="409" type="line"/>
      <point x="56" y="409" type="line"/>
    </contour>
  </outline>
</glyph>
<glyph name="metricaltetraseme" format="2">
  <advance width="769"/>
  <unicode hex="23D8"/>
  <note>
uni23D8
</note>
  <guideline x="425" y="520" angle="270"/>
  <outline>
    <contour>
      <point x="56" y="384" type="line"/>
      <point x="713" y="384" type="line"/>
      <point x="713" y="695" type="line"/>
      <point x="687" y="695" type="line"/>
      <point x="687" y="409" type="line"/>
      <point x="82" y="409" type="line"/>
      <point x="82" y="695" type="line"/>
      <point x="56" y="695" type="line"/>
    </contour>
  </outline>
</glyph>
<glyph name="whitetrapezium" format="2">
  <advance width="1016"/>
  <unicode hex="23E2"/>
  <note>
uni23E2
</note>
  <guideline x="397" y="738" angle="270"/>
  <guideline x="-36" y="246" angle="0"/>
  <guideline x="-67" y="500" angle="0"/>
  <outline>
    <contour>
      <point x="51" y="0" type="line"/>
      <point x="965" y="0" type="line"/>
      <point x="684" y="619" type="line"/>
      <point x="51" y="619" type="line"/>
    </contour>
    <contour>
      <point x="77" y="25" type="line"/>
      <point x="77" y="594" type="line"/>
      <point x="671" y="594" type="line"/>
      <point x="920" y="25" type="line"/>
    </contour>
  </outline>
</glyph>
<glyph name="flatness" format="2">
  <advance width="1366"/>
  <unicode hex="23E5"/>
  <note>
uni23E5
</note>
  <guideline x="708" y="585" angle="270"/>
  <guideline x="2" y="135" angle="0"/>
  <guideline x="132" y="430" angle="0"/>
  <outline>
    <contour>
      <point x="51" y="0" type="line"/>
      <point x="1000" y="0" type="line"/>
      <point x="1315" y="510" type="line"/>
      <point x="368" y="510" type="line"/>
    </contour>
    <contour>
      <point x="100" y="25" type="line"/>
      <point x="385" y="484" type="line"/>
      <point x="1267" y="484" type="line"/>
      <point x="982" y="25" type="line"/>
    </contour>
  </outline>
</glyph>
<glyph name="h.paren" format="2">
  <advance width="1000"/>
  <unicode hex="24A3"/>
  <note>
uni24A3
</note>
  <guideline x="-140" y="351" angle="0"/>
  <guideline x="531" y="561" angle="270"/>
  <outline>
    <contour>
      <point x="387" y="195" type="line"/>
      <point x="416" y="195" type="line"/>
      <point x="416" y="358" type="line" smooth="yes"/>
      <point x="416" y="453"/>
      <point x="450" y="496"/>
      <point x="526" y="496" type="curve" smooth="yes"/>
      <point x="588" y="496"/>
      <point x="615" y="466"/>
      <point x="615" y="397" type="curve" smooth="yes"/>
      <point x="615" y="195" type="line"/>
      <point x="644" y="195" type="line"/>
      <point x="644" y="392" type="line" smooth="yes"/>
      <point x="644" y="482"/>
      <point x="608" y="522"/>
      <point x="530" y="522" type="curve" smooth="yes"/>
      <point x="487" y="522"/>
      <point x="440" y="511"/>
      <point x="416" y="456" type="curve"/>
      <point x="414" y="456" type="line"/>
      <point x="415" y="462"/>
      <point x="416" y="472"/>
      <point x="416" y="486" type="curve" smooth="yes"/>
      <point x="416" y="660" type="line"/>
      <point x="387" y="660" type="line"/>
    </contour>
    <component base="_parenComp"/>
  </outline>
</glyph>
<glyph name="F.circled" format="2">
  <advance width="1000"/>
  <unicode hex="24BB"/>
  <note>
uni24BB
</note>
  <guideline x="504" y="632" angle="270"/>
  <outline>
    <contour>
      <point x="387" y="146" type="line"/>
      <point x="416" y="146" type="line"/>
      <point x="416" y="349" type="line"/>
      <point x="624" y="349" type="line"/>
      <point x="624" y="375" type="line"/>
      <point x="416" y="375" type="line"/>
      <point x="416" y="548" type="line"/>
      <point x="646" y="548" type="line"/>
      <point x="646" y="574" type="line"/>
      <point x="387" y="574" type="line"/>
    </contour>
    <component base="_circledComp"/>
  </outline>
</glyph>
<glyph name="H.circled" format="2">
  <advance width="1000"/>
  <unicode hex="24BD"/>
  <note>
uni24BD
</note>
  <guideline x="24" y="357" angle="0"/>
  <guideline x="496" y="447" angle="270"/>
  <outline>
    <contour>
      <point x="342" y="146" type="line"/>
      <point x="370" y="146" type="line"/>
      <point x="370" y="359" type="line"/>
      <point x="630" y="359" type="line"/>
      <point x="630" y="146" type="line"/>
      <point x="658" y="146" type="line"/>
      <point x="658" y="574" type="line"/>
      <point x="630" y="574" type="line"/>
      <point x="630" y="385" type="line"/>
      <point x="370" y="385" type="line"/>
      <point x="370" y="574" type="line"/>
      <point x="342" y="574" type="line"/>
    </contour>
    <component base="_circledComp"/>
  </outline>
</glyph>
<glyph name="T.circled" format="2">
  <advance width="1000"/>
  <unicode hex="24C9"/>
  <note>
uni24C9
</note>
  <guideline x="398" y="627" angle="270"/>
  <guideline x="252" y="561" angle="0"/>
  <outline>
    <contour>
      <point x="486" y="146" type="line"/>
      <point x="512" y="146" type="line"/>
      <point x="512" y="549" type="line"/>
      <point x="655" y="549" type="line"/>
      <point x="655" y="574" type="line"/>
      <point x="345" y="574" type="line"/>
      <point x="345" y="549" type="line"/>
      <point x="486" y="549" type="line"/>
    </contour>
    <component base="_circledComp"/>
  </outline>
</glyph>
<glyph name="Z.circled" format="2">
  <advance width="1000"/>
  <unicode hex="24CF"/>
  <note>
uni24CF
</note>
  <guideline x="420" y="629" angle="270"/>
  <guideline x="-6" y="357" angle="0"/>
  <guideline x="562" y="629" angle="270"/>
  <outline>
    <contour>
      <point x="361" y="146" type="line"/>
      <point x="629" y="146" type="line"/>
      <point x="629" y="172" type="line"/>
      <point x="397" y="172" type="line"/>
      <point x="635" y="556" type="line"/>
      <point x="635" y="574" type="line"/>
      <point x="363" y="574" type="line"/>
      <point x="363" y="548" type="line"/>
      <point x="598" y="548" type="line"/>
      <point x="361" y="165" type="line"/>
    </contour>
    <component base="_circledComp"/>
  </outline>
</glyph>
<glyph name="s.circled" format="2">
  <advance width="1000"/>
  <unicode hex="24E2"/>
  <note>
uni24E2
</note>
  <guideline x="507" y="543" angle="270"/>
  <guideline x="323" y="441" angle="0"/>
  <guideline x="299" y="280" angle="0"/>
  <guideline x="489" y="325" angle="71.133"/>
  <outline>
    <contour>
      <point x="496" y="190" type="curve" smooth="yes"/>
      <point x="559" y="190"/>
      <point x="612" y="214"/>
      <point x="612" y="277" type="curve" smooth="yes"/>
      <point x="612" y="332"/>
      <point x="571" y="354"/>
      <point x="513" y="374" type="curve" smooth="yes"/>
      <point x="453" y="395"/>
      <point x="423" y="408"/>
      <point x="423" y="441" type="curve" smooth="yes"/>
      <point x="423" y="473"/>
      <point x="449" y="496"/>
      <point x="504" y="496" type="curve" smooth="yes"/>
      <point x="532" y="496"/>
      <point x="567" y="490"/>
      <point x="596" y="475" type="curve"/>
      <point x="607" y="502" type="line"/>
      <point x="574" y="517"/>
      <point x="539" y="521"/>
      <point x="509" y="521" type="curve" smooth="yes"/>
      <point x="434" y="521"/>
      <point x="393" y="491"/>
      <point x="393" y="441" type="curve" smooth="yes"/>
      <point x="393" y="387"/>
      <point x="440" y="367"/>
      <point x="500" y="346" type="curve" smooth="yes"/>
      <point x="557" y="326"/>
      <point x="582" y="311"/>
      <point x="582" y="278" type="curve" smooth="yes"/>
      <point x="582" y="244"/>
      <point x="555" y="217"/>
      <point x="493" y="217" type="curve" smooth="yes"/>
      <point x="456" y="217"/>
      <point x="423" y="227"/>
      <point x="392" y="242" type="curve"/>
      <point x="392" y="211" type="line"/>
      <point x="431" y="196"/>
      <point x="464" y="190"/>
    </contour>
    <component base="_circledComp"/>
  </outline>
</glyph>
<glyph name="saltire" format="2">
  <advance width="596"/>
  <unicode hex="2613"/>
  <note>
uni2613
</note>
  <guideline x="-8" y="726" angle="0"/>
  <guideline x="-10" y="0" angle="0"/>
  <guideline x="-8" y="482" angle="0"/>
  <guideline x="-8" y="238" angle="0"/>
  <outline>
    <contour>
      <point x="70" y="0" type="line"/>
      <point x="101" y="0" type="line"/>
      <point x="296" y="340" type="line"/>
      <point x="491" y="0" type="line"/>
      <point x="521" y="0" type="line"/>
      <point x="311" y="367" type="line"/>
      <point x="517" y="726" type="line"/>
      <point x="486" y="726" type="line"/>
      <point x="296" y="394" type="line"/>
      <point x="105" y="726" type="line"/>
      <point x="75" y="726" type="line"/>
      <point x="280" y="367" type="line"/>
    </contour>
  </outline>
</glyph>
<glyph name="constantineCross" format="2">
  <advance width="737"/>
  <unicode hex="2627"/>
  <note>
uni2627
</note>
  <guideline x="-25" y="534" angle="0"/>
  <guideline x="-25" y="298" angle="0"/>
  <guideline x="-25" y="0" angle="0"/>
  <guideline x="285" y="817" angle="270"/>
  <outline>
    <contour>
      <point x="70" y="0" type="line"/>
      <point x="111" y="0" type="line"/>
      <point x="258" y="134" type="line"/>
      <point x="258" y="0" type="line"/>
      <point x="285" y="0" type="line"/>
      <point x="285" y="134" type="line"/>
      <point x="432" y="0" type="line"/>
      <point x="473" y="0" type="line"/>
      <point x="294" y="159" type="line"/>
      <point x="473" y="298" type="line"/>
      <point x="432" y="298" type="line"/>
      <point x="285" y="185" type="line"/>
      <point x="285" y="338" type="line"/>
      <point x="380" y="338" type="line" smooth="yes"/>
      <point x="568" y="338"/>
      <point x="659" y="391"/>
      <point x="659" y="534" type="curve" smooth="yes"/>
      <point x="659" y="664"/>
      <point x="556" y="714"/>
      <point x="375" y="714" type="curve" smooth="yes"/>
      <point x="258" y="714" type="line"/>
      <point x="258" y="185" type="line"/>
      <point x="111" y="298" type="line"/>
      <point x="70" y="298" type="line"/>
      <point x="249" y="159" type="line"/>
    </contour>
    <contour>
      <point x="285" y="363" type="line"/>
      <point x="285" y="688" type="line"/>
      <point x="364" y="688" type="line" smooth="yes"/>
      <point x="558" y="688"/>
      <point x="631" y="638"/>
      <point x="631" y="531" type="curve" smooth="yes"/>
      <point x="631" y="384"/>
      <point x="518" y="363"/>
      <point x="365" y="363" type="curve" smooth="yes"/>
    </contour>
  </outline>
</glyph>
<glyph name="coffin" format="2">
  <advance width="1210"/>
  <unicode hex="26B0"/>
  <note>
uni26B0
</note>
  <guideline x="17" y="352" angle="0"/>
  <guideline x="77" y="669" angle="270"/>
  <guideline x="353" y="669" angle="270"/>
  <guideline x="1133" y="669" angle="270"/>
  <outline>
    <contour>
      <point x="353" y="89" type="line"/>
      <point x="1159" y="201" type="line"/>
      <point x="1159" y="509" type="line"/>
      <point x="353" y="621" type="line"/>
      <point x="51" y="512" type="line"/>
      <point x="51" y="198" type="line"/>
    </contour>
    <contour>
      <point x="353" y="115" type="line"/>
      <point x="77" y="215" type="line"/>
      <point x="77" y="496" type="line"/>
      <point x="353" y="595" type="line"/>
      <point x="1133" y="486" type="line"/>
      <point x="1133" y="224" type="line"/>
    </contour>
  </outline>
</glyph>
<glyph name="pallas" format="2">
  <advance width="530"/>
  <unicode hex="26B4"/>
  <note>
uni26B4
</note>
  <guideline x="6" y="155" angle="0"/>
  <guideline x="6" y="446" angle="0"/>
  <guideline x="265" y="817" angle="270"/>
  <outline>
    <contour>
      <point x="252" y="0" type="line"/>
      <point x="278" y="0" type="line"/>
      <point x="278" y="129" type="line"/>
      <point x="403" y="129" type="line"/>
      <point x="403" y="155" type="line"/>
      <point x="278" y="155" type="line"/>
      <point x="278" y="245" type="line"/>
      <point x="479" y="446" type="line"/>
      <point x="265" y="660" type="line"/>
      <point x="51" y="446" type="line"/>
      <point x="252" y="245" type="line"/>
      <point x="252" y="155" type="line"/>
      <point x="127" y="155" type="line"/>
      <point x="127" y="129" type="line"/>
      <point x="252" y="129" type="line"/>
    </contour>
    <contour>
      <point x="265" y="269" type="line"/>
      <point x="88" y="446" type="line"/>
      <point x="265" y="623" type="line"/>
      <point x="442" y="446" type="line"/>
    </contour>
  </outline>
</glyph>
<glyph name="semisextile" format="2">
  <advance width="572"/>
  <unicode hex="26BA"/>
  <note>
uni26BA
</note>
  <guideline x="-23" y="440" angle="0"/>
  <guideline x="-23" y="245" angle="0"/>
  <guideline x="-23" y="79" angle="0"/>
  <outline>
    <contour>
      <point x="61" y="0" type="line"/>
      <point x="511" y="0" type="line"/>
      <point x="511" y="25" type="line"/>
      <point x="307" y="25" type="line"/>
      <point x="511" y="440" type="line"/>
      <point x="481" y="440" type="line"/>
      <point x="286" y="40" type="line"/>
      <point x="90" y="440" type="line"/>
      <point x="61" y="440" type="line"/>
      <point x="265" y="25" type="line"/>
      <point x="61" y="25" type="line"/>
    </contour>
  </outline>
</glyph>
<glyph name="sesquiquadrate" format="2">
  <advance width="756"/>
  <unicode hex="26BC"/>
  <note>
uni26BC
</note>
  <guideline x="344" y="697" angle="270"/>
  <guideline x="13" y="13" angle="0"/>
  <outline>
    <contour>
      <point x="365" y="-207" type="line"/>
      <point x="705" y="-207" type="line"/>
      <point x="705" y="-181" type="line"/>
      <point x="391" y="-181" type="line"/>
      <point x="391" y="0" type="line"/>
      <point x="705" y="0" type="line"/>
      <point x="705" y="654" type="line"/>
      <point x="51" y="654" type="line"/>
      <point x="51" y="0" type="line"/>
      <point x="365" y="0" type="line"/>
    </contour>
    <contour>
      <point x="77" y="25" type="line"/>
      <point x="77" y="628" type="line"/>
      <point x="679" y="628" type="line"/>
      <point x="679" y="25" type="line"/>
      <point x="391" y="25" type="line"/>
      <point x="391" y="194" type="line"/>
      <point x="365" y="194" type="line"/>
      <point x="365" y="25" type="line"/>
    </contour>
  </outline>
</glyph>
<glyph name="whiteFlagWithHorizontalMiddleBlackStripe" format="2">
  <advance width="789"/>
  <unicode hex="26FF"/>
  <note>
uni26FF
</note>
  <guideline x="77" y="797" angle="270"/>
  <guideline x="5" y="688" angle="0"/>
  <outline>
    <contour>
      <point x="51" y="0" type="line"/>
      <point x="77" y="0" type="line"/>
      <point x="77" y="212" type="line"/>
      <point x="738" y="212" type="line"/>
      <point x="738" y="714" type="line"/>
      <point x="51" y="714" type="line"/>
    </contour>
    <contour>
      <point x="77" y="237" type="line"/>
      <point x="77" y="429" type="line"/>
      <point x="711" y="429" type="line"/>
      <point x="711" y="237" type="line"/>
    </contour>
    <contour>
      <point x="77" y="492" type="line"/>
      <point x="77" y="688" type="line"/>
      <point x="711" y="688" type="line"/>
      <point x="711" y="492" type="line"/>
    </contour>
  </outline>
</glyph>
<glyph name="A.box" format="2">
  <advance width="1000"/>
  <unicode hex="1F130"/>
  <note>
uni1F130
</note>
  <guideline x="232" y="796" angle="270"/>
  <guideline x="46" y="639" angle="0"/>
  <guideline x="-41" y="351" angle="0"/>
  <outline>
    <contour>
      <point x="313" y="146" type="line"/>
      <point x="345" y="146" type="line"/>
      <point x="411" y="311" type="line"/>
      <point x="590" y="311" type="line"/>
      <point x="656" y="146" type="line"/>
      <point x="688" y="146" type="line"/>
      <point x="514" y="574" type="line"/>
      <point x="486" y="574" type="line"/>
    </contour>
    <contour>
      <point x="420" y="336" type="line"/>
      <point x="477" y="479" type="line" smooth="yes"/>
      <point x="486" y="503"/>
      <point x="495" y="527"/>
      <point x="500" y="543" type="curve"/>
      <point x="501" y="543" type="line"/>
      <point x="505" y="526"/>
      <point x="515" y="502"/>
      <point x="524" y="479" type="curve" smooth="yes"/>
      <point x="580" y="336" type="line"/>
    </contour>
    <component base="_boxComp"/>
  </outline>
</glyph>
<glyph name="H.box" format="2">
  <advance width="1000"/>
  <unicode hex="1F137"/>
  <note>
uni1F137
</note>
  <guideline x="30" y="337" angle="0"/>
  <outline>
    <contour>
      <point x="342" y="146" type="line"/>
      <point x="370" y="146" type="line"/>
      <point x="370" y="359" type="line"/>
      <point x="630" y="359" type="line"/>
      <point x="630" y="146" type="line"/>
      <point x="658" y="146" type="line"/>
      <point x="658" y="574" type="line"/>
      <point x="630" y="574" type="line"/>
      <point x="630" y="385" type="line"/>
      <point x="370" y="385" type="line"/>
      <point x="370" y="574" type="line"/>
      <point x="342" y="574" type="line"/>
    </contour>
    <component base="_boxComp"/>
  </outline>
</glyph>
<glyph name="u1f190" format="2">
  <advance width="1000"/>
  <unicode hex="1F190"/>
  <note>
uni1F190
</note>
  <guideline x="357" y="781" angle="270"/>
  <guideline x="43" y="363" angle="0"/>
  <outline>
    <contour>
      <point x="260" y="146" type="line"/>
      <point x="369" y="146" type="line" smooth="yes"/>
      <point x="520" y="146"/>
      <point x="604" y="224"/>
      <point x="604" y="364" type="curve" smooth="yes"/>
      <point x="604" y="500"/>
      <point x="523" y="574"/>
      <point x="384" y="574" type="curve" smooth="yes"/>
      <point x="260" y="574" type="line"/>
    </contour>
    <contour>
      <point x="288" y="172" type="line"/>
      <point x="288" y="548" type="line"/>
      <point x="370" y="548" type="line" smooth="yes"/>
      <point x="505" y="548"/>
      <point x="574" y="486"/>
      <point x="574" y="363" type="curve" smooth="yes"/>
      <point x="574" y="237"/>
      <point x="500" y="172"/>
      <point x="355" y="172" type="curve" smooth="yes"/>
    </contour>
    <contour>
      <point x="661" y="94" type="curve" smooth="yes"/>
      <point x="719" y="94"/>
      <point x="743" y="124"/>
      <point x="743" y="177" type="curve" smooth="yes"/>
      <point x="743" y="574" type="line"/>
      <point x="715" y="574" type="line"/>
      <point x="715" y="177" type="line" smooth="yes"/>
      <point x="715" y="138"/>
      <point x="698" y="121"/>
      <point x="663" y="121" type="curve" smooth="yes"/>
      <point x="651" y="121"/>
      <point x="631" y="123"/>
      <point x="612" y="130" type="curve"/>
      <point x="612" y="102" type="line"/>
      <point x="626" y="97"/>
      <point x="645" y="94"/>
    </contour>
    <component base="_boxComp"/>
  </outline>
</glyph>
<glyph name="u1f1a5" format="2">
  <advance width="1000"/>
  <unicode hex="1F1A5"/>
  <note>
uni1F1A5
</note>
  <guideline x="518" y="548" angle="0"/>
  <guideline x="489" y="524" angle="270"/>
  <guideline x="682" y="305" angle="180"/>
  <outline>
    <contour>
      <point x="491" y="141" type="curve" smooth="yes"/>
      <point x="559" y="141"/>
      <point x="608" y="178"/>
      <point x="619" y="235" type="curve"/>
      <point x="609" y="244" type="line"/>
      <point x="619" y="146" type="line"/>
      <point x="638" y="146" type="line"/>
      <point x="638" y="574" type="line"/>
      <point x="610" y="574" type="line"/>
      <point x="610" y="462" type="line" smooth="yes"/>
      <point x="610" y="445"/>
      <point x="611" y="428"/>
      <point x="612" y="410" type="curve"/>
      <point x="611" y="410" type="line"/>
      <point x="585" y="460"/>
      <point x="535" y="474"/>
      <point x="493" y="474" type="curve" smooth="yes"/>
      <point x="403" y="474"/>
      <point x="347" y="410"/>
      <point x="347" y="308" type="curve" smooth="yes"/>
      <point x="347" y="202"/>
      <point x="404" y="141"/>
    </contour>
    <contour>
      <point x="496" y="167" type="curve" smooth="yes"/>
      <point x="419" y="167"/>
      <point x="377" y="214"/>
      <point x="377" y="308" type="curve" smooth="yes"/>
      <point x="377" y="401"/>
      <point x="419" y="447"/>
      <point x="496" y="447" type="curve" smooth="yes"/>
      <point x="572" y="447"/>
      <point x="610" y="400"/>
      <point x="610" y="304" type="curve"/>
      <point x="610" y="312" type="line"/>
      <point x="609" y="214"/>
      <point x="573" y="167"/>
    </contour>
    <component base="_boxComp"/>
  </outline>
</glyph>
<glyph name="fire-alchemical" format="2">
  <advance width="874"/>
  <unicode hex="1F702"/>
  <note>
uni1F702
</note>
  <guideline x="437" y="193" angle="270"/>
  <guideline x="-36" y="26" angle="0"/>
  <outline>
    <contour>
      <point x="69" y="0" type="line"/>
      <point x="805" y="0" type="line"/>
      <point x="437" y="701" type="line"/>
    </contour>
    <contour>
      <point x="113" y="25" type="line"/>
      <point x="437" y="643" type="line"/>
      <point x="761" y="25" type="line"/>
    </contour>
  </outline>
</glyph>
<glyph name="salt-alchemical" format="2">
  <advance width="840"/>
  <unicode hex="1F714"/>
  <note>
uni1F714
</note>
  <guideline x="1251" y="771" angle="270"/>
  <guideline x="-63" y="356" angle="0"/>
  <guideline x="420" y="790" angle="270"/>
  <outline>
    <contour>
      <point x="420" y="5" type="curve" smooth="yes"/>
      <point x="614" y="5"/>
      <point x="771" y="162"/>
      <point x="771" y="356" type="curve" smooth="yes"/>
      <point x="771" y="550"/>
      <point x="614" y="707"/>
      <point x="420" y="707" type="curve" smooth="yes"/>
      <point x="226" y="707"/>
      <point x="69" y="550"/>
      <point x="69" y="356" type="curve" smooth="yes"/>
      <point x="69" y="162"/>
      <point x="226" y="5"/>
    </contour>
    <contour>
      <point x="420" y="33" type="curve" smooth="yes"/>
      <point x="245" y="33"/>
      <point x="103" y="170"/>
      <point x="96" y="344" type="curve"/>
      <point x="743" y="344" type="line"/>
      <point x="736" y="170"/>
      <point x="594" y="33"/>
    </contour>
    <contour>
      <point x="96" y="369" type="line"/>
      <point x="103" y="542"/>
      <point x="245" y="680"/>
      <point x="420" y="680" type="curve" smooth="yes"/>
      <point x="594" y="680"/>
      <point x="736" y="542"/>
      <point x="743" y="369" type="curve"/>
    </contour>
  </outline>
</glyph>
<glyph name="rockSalt2-alchemical" format="2">
  <advance width="1164"/>
  <unicode hex="1F719"/>
  <note>
uni1F719
</note>
  <guideline x="-32" y="369" angle="0"/>
  <guideline x="352" y="770" angle="270"/>
  <outline>
    <contour>
      <point x="352" y="39" type="line"/>
      <point x="623" y="355" type="line"/>
      <point x="1099" y="347" type="line"/>
      <point x="1099" y="392" type="line"/>
      <point x="623" y="382" type="line"/>
      <point x="352" y="699" type="line"/>
      <point x="69" y="369" type="line"/>
    </contour>
    <contour>
      <point x="352" y="80" type="line"/>
      <point x="104" y="369" type="line"/>
      <point x="352" y="658" type="line"/>
      <point x="600" y="369" type="line"/>
    </contour>
  </outline>
</glyph>
<glyph name="crocusOfIron-alchemical" format="2">
  <advance width="604"/>
  <unicode hex="1F71E"/>
  <note>
uni1F71E
</note>
  <guideline x="302" y="803" angle="270"/>
  <guideline x="-9" y="401" angle="0"/>
  <guideline x="-9" y="159" angle="0"/>
  <guideline x="121" y="472" angle="270"/>
  <guideline x="463" y="442" angle="270"/>
  <guideline x="2" y="331" angle="0"/>
  <outline>
    <contour>
      <point x="302" y="3" type="line"/>
      <point x="538" y="426" type="line"/>
      <point x="315" y="426" type="line"/>
      <point x="315" y="499" type="line"/>
      <point x="435" y="499" type="line"/>
      <point x="435" y="524" type="line"/>
      <point x="315" y="524" type="line"/>
      <point x="315" y="608" type="line"/>
      <point x="396" y="574" type="line"/>
      <point x="302" y="718" type="line"/>
      <point x="208" y="574" type="line"/>
      <point x="289" y="607" type="line"/>
      <point x="289" y="524" type="line"/>
      <point x="169" y="524" type="line"/>
      <point x="169" y="499" type="line"/>
      <point x="289" y="499" type="line"/>
      <point x="289" y="426" type="line"/>
      <point x="66" y="426" type="line"/>
    </contour>
    <contour>
      <point x="302" y="54" type="line"/>
      <point x="110" y="401" type="line"/>
      <point x="494" y="401" type="line"/>
    </contour>
  </outline>
</glyph>
<glyph name="regulus-alchemical" format="2">
  <advance width="910"/>
  <unicode hex="1F732"/>
  <note>
uni1F732
</note>
  <guideline x="-15" y="132" angle="0"/>
  <guideline x="-14" y="312" angle="0"/>
  <guideline x="654" y="604" angle="270"/>
  <guideline x="455" y="794" angle="270"/>
  <guideline x="76" y="799" angle="270"/>
  <guideline x="833" y="785" angle="270"/>
  <guideline x="-15" y="420" angle="0"/>
  <guideline x="-31" y="714" angle="0"/>
  <guideline x="-31" y="674" angle="0"/>
  <outline>
    <contour>
      <point x="50" y="0" type="line"/>
      <point x="860" y="0" type="line"/>
      <point x="860" y="714" type="line"/>
      <point x="847" y="714" type="line"/>
      <point x="654" y="457" type="line"/>
      <point x="460" y="714" type="line"/>
      <point x="449" y="714" type="line"/>
      <point x="256" y="457" type="line"/>
      <point x="63" y="714" type="line"/>
      <point x="50" y="714" type="line"/>
    </contour>
    <contour>
      <point x="76" y="25" type="line"/>
      <point x="76" y="206" type="line"/>
      <point x="833" y="206" type="line"/>
      <point x="833" y="25" type="line"/>
    </contour>
    <contour>
      <point x="76" y="231" type="line"/>
      <point x="76" y="648" type="line"/>
      <point x="247" y="420" type="line"/>
      <point x="263" y="420" type="line"/>
      <point x="455" y="674" type="line"/>
      <point x="647" y="420" type="line"/>
      <point x="663" y="420" type="line"/>
      <point x="833" y="647" type="line"/>
      <point x="833" y="231" type="line"/>
    </contour>
  </outline>
</glyph>
<glyph name="crucible-alchemical" format="2">
  <advance width="601"/>
  <unicode hex="1F765"/>
  <note>
uni1F765
</note>
  <guideline x="282" y="755" angle="270"/>
  <guideline x="-12" y="539" angle="0"/>
  <guideline x="46" y="0" angle="0"/>
  <guideline x="46" y="98" angle="0"/>
  <guideline x="46" y="293" angle="0"/>
  <outline>
    <contour>
      <point x="419" y="0" type="curve"/>
      <point x="473" y="0" type="line"/>
      <point x="366" y="67"/>
      <point x="272" y="158"/>
      <point x="202" y="268" type="curve"/>
      <point x="498" y="699" type="line"/>
      <point x="498" y="714" type="line"/>
      <point x="50" y="714" type="line"/>
      <point x="50" y="445"/>
      <point x="162" y="190"/>
    </contour>
    <contour>
      <point x="187" y="292" type="line"/>
      <point x="120" y="406"/>
      <point x="79" y="540"/>
      <point x="76" y="688" type="curve"/>
      <point x="458" y="688" type="line"/>
    </contour>
  </outline>
</glyph>
<glyph name="crucible3-alchemical" format="2">
  <advance width="760"/>
  <unicode hex="1F767"/>
  <note>
uni1F767
</note>
  <guideline x="-124" y="714" angle="0"/>
  <guideline x="-27" y="0" angle="0"/>
  <guideline x="-154" y="500" angle="0"/>
  <guideline x="24" y="221" angle="0"/>
  <outline>
    <contour>
      <point x="369" y="0" type="line"/>
      <point x="391" y="0" type="line"/>
      <point x="681" y="715" type="line"/>
      <point x="651" y="715" type="line"/>
      <point x="528" y="409" type="line"/>
      <point x="389" y="714" type="line"/>
      <point x="371" y="714" type="line"/>
      <point x="232" y="409" type="line"/>
      <point x="108" y="715" type="line"/>
      <point x="79" y="715" type="line"/>
    </contour>
    <contour>
      <point x="380" y="43" type="line"/>
      <point x="245" y="376" type="line"/>
      <point x="380" y="673" type="line"/>
      <point x="514" y="376" type="line"/>
    </contour>
  </outline>
</glyph>
<glyph name="E.001" format="2">
  <advance width="487"/>
  <anchor x="243" y="714" name="top"/>
  <outline>
    <contour>
      <point x="51" y="0" type="line"/>
      <point x="436" y="0" type="line"/>
      <point x="436" y="25" type="line"/>
      <point x="77" y="25" type="line"/>
      <point x="77" y="364" type="line"/>
      <point x="416" y="364" type="line"/>
      <point x="416" y="389" type="line"/>
      <point x="77" y="389" type="line"/>
      <point x="77" y="689" type="line"/>
      <point x="436" y="689" type="line"/>
      <point x="436" y="714" type="line"/>
      <point x="51" y="714" type="line"/>
    </contour>
  </outline>
</glyph>
<glyph name="F.001" format="2">
  <advance width="488"/>
  <anchor x="244" y="714" name="top"/>
  <outline>
    <contour>
      <point x="51" y="0" type="line"/>
      <point x="77" y="0" type="line"/>
      <point x="77" y="329" type="line"/>
      <point x="418" y="329" type="line"/>
      <point x="418" y="354" type="line"/>
      <point x="77" y="354" type="line"/>
      <point x="77" y="689" type="line"/>
      <point x="437" y="689" type="line"/>
      <point x="437" y="714" type="line"/>
      <point x="51" y="714" type="line"/>
    </contour>
  </outline>
</glyph>
<glyph name="H.001" format="2">
  <advance width="602"/>
  <anchor x="301" y="714" name="top"/>
  <outline>
    <contour>
      <point x="51" y="0" type="line"/>
      <point x="77" y="0" type="line"/>
      <point x="77" y="363" type="line"/>
      <point x="525" y="363" type="line"/>
      <point x="525" y="0" type="line"/>
      <point x="551" y="0" type="line"/>
      <point x="551" y="714" type="line"/>
      <point x="525" y="714" type="line"/>
      <point x="525" y="388" type="line"/>
      <point x="77" y="388" type="line"/>
      <point x="77" y="714" type="line"/>
      <point x="51" y="714" type="line"/>
    </contour>
  </outline>
</glyph>
<glyph name="I.001" format="2">
  <advance width="264"/>
  <anchor x="132" y="714" name="top"/>
  <outline>
    <contour>
      <point x="51" y="0" type="line"/>
      <point x="213" y="0" type="line"/>
      <point x="213" y="20" type="line"/>
      <point x="145" y="23" type="line"/>
      <point x="145" y="690" type="line"/>
      <point x="213" y="694" type="line"/>
      <point x="213" y="714" type="line"/>
      <point x="51" y="714" type="line"/>
      <point x="51" y="694" type="line"/>
      <point x="119" y="690" type="line"/>
      <point x="119" y="23" type="line"/>
      <point x="51" y="20" type="line"/>
    </contour>
  </outline>
</glyph>
<glyph name="L.001" format="2">
  <advance width="485"/>
  <anchor x="242" y="714" name="top"/>
  <outline>
    <contour>
      <point x="51" y="0" type="line"/>
      <point x="434" y="0" type="line"/>
      <point x="434" y="25" type="line"/>
      <point x="77" y="25" type="line"/>
      <point x="77" y="714" type="line"/>
      <point x="51" y="714" type="line"/>
    </contour>
  </outline>
</glyph>
<glyph name="X.001" format="2">
  <advance width="617"/>
  <anchor x="308" y="714" name="top"/>
  <outline>
    <contour>
      <point x="51" y="0" type="line"/>
      <point x="82" y="0" type="line"/>
      <point x="310" y="350" type="line"/>
      <point x="535" y="0" type="line"/>
      <point x="566" y="0" type="line"/>
      <point x="328" y="370" type="line"/>
      <point x="548" y="714" type="line"/>
      <point x="517" y="714" type="line"/>
      <point x="311" y="390" type="line"/>
      <point x="107" y="714" type="line"/>
      <point x="76" y="714" type="line"/>
      <point x="293" y="370" type="line"/>
    </contour>
  </outline>
</glyph>
<glyph name="Y.001" format="2">
  <advance width="607"/>
  <anchor x="303" y="714" name="top"/>
  <outline>
    <contour>
      <point x="292" y="0" type="line"/>
      <point x="318" y="0" type="line"/>
      <point x="318" y="275" type="line"/>
      <point x="556" y="714" type="line"/>
      <point x="526" y="714" type="line"/>
      <point x="304" y="301" type="line"/>
      <point x="81" y="714" type="line"/>
      <point x="51" y="714" type="line"/>
      <point x="292" y="271" type="line"/>
    </contour>
  </outline>
</glyph>
<glyph name=".notdef" format="2">
  <advance width="600"/>
  <note>
.notdef
</note>
  <guideline x="285" y="782" angle="270"/>
  <outline>
    <contour>
      <point x="94" y="0" type="line"/>
      <point x="505" y="0" type="line"/>
      <point x="505" y="714" type="line"/>
      <point x="94" y="714" type="line"/>
    </contour>
    <contour>
      <point x="121" y="25" type="line"/>
      <point x="121" y="688" type="line"/>
      <point x="479" y="688" type="line"/>
      <point x="479" y="25" type="line"/>
    </contour>
  </outline>
</glyph>
<glyph name="i.001" format="2">
  <advance width="154"/>
  <anchor x="77" y="714" name="top"/>
  <outline>
    <contour>
      <point x="63" y="0" type="line"/>
      <point x="89" y="0" type="line"/>
      <point x="89" y="528" type="line"/>
      <point x="63" y="528" type="line"/>
    </contour>
    <contour>
      <point x="76" y="659" type="curve" smooth="yes"/>
      <point x="100" y="659"/>
      <point x="103" y="673"/>
      <point x="103" y="690" type="curve" smooth="yes"/>
      <point x="103" y="706"/>
      <point x="100" y="721"/>
      <point x="76" y="721" type="curve" smooth="yes"/>
      <point x="56" y="721"/>
      <point x="51" y="706"/>
      <point x="51" y="690" type="curve" smooth="yes"/>
      <point x="51" y="673"/>
      <point x="56" y="659"/>
    </contour>
  </outline>
</glyph>
